<svg width="72" height="72" viewBox="0 0 72 72" fill="none" xmlns="http://www.w3.org/2000/svg">
<g filter="url(#filter0_i_1_124)">
<path d="M18.0257 51.4286L32.3572 59.2457V68.5714H8.35716C4.55144 68.5714 1.50002 65.52 1.50002 61.7143V6.85714C1.50002 5.03852 2.22246 3.29437 3.50843 2.00841C4.79439 0.722447 6.53853 0 8.35716 0H11.7857V24L20.3572 18.8571L28.9286 24V0H49.5C51.3186 0 53.0628 0.722447 54.3488 2.00841C55.6347 3.29437 56.3572 5.03852 56.3572 6.85714V36.1371L51.2143 33.3257L18.0257 51.4286ZM70.0714 51.4286L51.2143 41.1429L32.3572 51.4286L51.2143 61.7143L70.0714 51.4286ZM39.2143 58.5943V65.4514L51.2143 72L63.2143 65.4514V58.5943L51.2143 65.1429L39.2143 58.5943Z" fill="#4F4F4F"/>
</g>
<defs>
<filter id="filter0_i_1_124" x="1.50002" y="0" width="68.5714" height="76" filterUnits="userSpaceOnUse" color-interpolation-filters="sRGB">
<feFlood flood-opacity="0" result="BackgroundImageFix"/>
<feBlend mode="normal" in="SourceGraphic" in2="BackgroundImageFix" result="shape"/>
<feColorMatrix in="SourceAlpha" type="matrix" values="0 0 0 0 0 0 0 0 0 0 0 0 0 0 0 0 0 0 127 0" result="hardAlpha"/>
<feOffset dy="4"/>
<feGaussianBlur stdDeviation="2"/>
<feComposite in2="hardAlpha" operator="arithmetic" k2="-1" k3="1"/>
<feColorMatrix type="matrix" values="0 0 0 0 0 0 0 0 0 0 0 0 0 0 0 0 0 0 0.12 0"/>
<feBlend mode="normal" in2="shape" result="effect1_innerShadow_1_124"/>
</filter>
</defs>
</svg>
