<svg width="40" height="40" viewBox="0 0 40 40" fill="none" xmlns="http://www.w3.org/2000/svg">
<circle opacity="0.75" cx="20" cy="20" r="19.75" fill="white" stroke="#BDBDBD" stroke-width="0.5"/>
<path d="M16.4993 29.9973C16.1496 29.998 15.8107 29.8762 15.5414 29.6531C15.3899 29.5274 15.2646 29.3731 15.1728 29.199C15.081 29.0248 15.0244 28.8343 15.0063 28.6383C14.9882 28.4422 15.009 28.2446 15.0675 28.0566C15.1259 27.8686 15.2208 27.694 15.3469 27.5427L22.052 19.5205L15.5863 11.4833C15.462 11.3303 15.3692 11.1541 15.3132 10.965C15.2571 10.7759 15.239 10.5776 15.2599 10.3815C15.2808 10.1854 15.3402 9.99536 15.4347 9.82229C15.5293 9.64922 15.6571 9.49654 15.8108 9.37303C15.9657 9.23678 16.147 9.134 16.3435 9.07116C16.54 9.00831 16.7473 8.98676 16.9525 9.00784C17.1577 9.02892 17.3563 9.09218 17.5358 9.19366C17.7154 9.29514 17.8721 9.43264 17.996 9.59753L25.225 18.5776C25.4451 18.8454 25.5654 19.1813 25.5654 19.528C25.5654 19.8747 25.4451 20.2106 25.225 20.4784L17.7416 29.4585C17.5914 29.6396 17.4007 29.7828 17.1849 29.8764C16.969 29.97 16.7342 30.0114 16.4993 29.9973Z" fill="#828282"/>
</svg>
