<svg width="65" height="55" viewBox="0 0 65 55" fill="none" xmlns="http://www.w3.org/2000/svg">
<path d="M43.2 11.55C43.2 14.4143 42.0621 17.1614 40.0367 19.1868C38.0113 21.2121 35.2643 22.35 32.4 22.35C29.5356 22.35 26.7886 21.2121 24.7632 19.1868C22.7378 17.1614 21.6 14.4143 21.6 11.55C21.6 8.68566 22.7378 5.93864 24.7632 3.91325C26.7886 1.88785 29.5356 0.75 32.4 0.75C35.2643 0.75 38.0113 1.88785 40.0367 3.91325C42.0621 5.93864 43.2 8.68566 43.2 11.55Z" fill="#4F4F4F"/>
<path d="M61.2 18.75C61.2 20.6596 60.4415 22.491 59.0912 23.8412C57.741 25.1915 55.9096 25.95 54 25.95C52.0905 25.95 50.2591 25.1915 48.9089 23.8412C47.5586 22.491 46.8 20.6596 46.8 18.75C46.8 16.8405 47.5586 15.0091 48.9089 13.6589C50.2591 12.3086 52.0905 11.55 54 11.55C55.9096 11.55 57.741 12.3086 59.0912 13.6589C60.4415 15.0091 61.2 16.8405 61.2 18.75Z" fill="#4F4F4F"/>
<path d="M46.8 43.95C46.8 40.1309 45.2829 36.4682 42.5823 33.7677C39.8818 31.0672 36.2191 29.55 32.4 29.55C28.5809 29.55 24.9182 31.0672 22.2177 33.7677C19.5171 36.4682 18 40.1309 18 43.95V54.75H46.8V43.95Z" fill="#4F4F4F"/>
<path d="M18 18.75C18 20.6596 17.2414 22.491 15.8911 23.8412C14.5409 25.1915 12.7095 25.95 10.8 25.95C8.89042 25.95 7.05907 25.1915 5.70881 23.8412C4.35854 22.491 3.59998 20.6596 3.59998 18.75C3.59998 16.8405 4.35854 15.0091 5.70881 13.6589C7.05907 12.3086 8.89042 11.55 10.8 11.55C12.7095 11.55 14.5409 12.3086 15.8911 13.6589C17.2414 15.0091 18 16.8405 18 18.75Z" fill="#4F4F4F"/>
<path d="M54 54.7495V43.9495C54.0053 40.2893 53.0759 36.6884 51.3 33.4879C52.8961 33.0794 54.5644 33.0409 56.1776 33.3753C57.7908 33.7096 59.3063 34.408 60.6085 35.4172C61.9108 36.4263 62.9653 37.7196 63.6917 39.1982C64.4181 40.6769 64.7972 42.302 64.8001 43.9495V54.7495H54Z" fill="#4F4F4F"/>
<path d="M13.5 33.4892C11.7243 36.6898 10.795 40.2906 10.8 43.9508V54.7508H9.56592e-07V43.9508C-0.000692885 42.3021 0.376068 40.6752 1.10141 39.1947C1.82675 37.7142 2.88142 36.4193 4.18458 35.4095C5.48775 34.3996 7.00481 33.7015 8.61952 33.3686C10.2342 33.0358 11.9037 33.077 13.5 33.4892Z" fill="#4F4F4F"/>
</svg>
