<svg width="97" height="93" viewBox="0 0 97 93" fill="none" xmlns="http://www.w3.org/2000/svg">
<path d="M48.5 0.0671387L30.4355 11.3755H14.9584V20.9588L5.23129 27.1401C2.45212 28.8171 0.583374 31.8359 0.583374 35.3338V83.2505C0.583374 85.7921 1.59304 88.2297 3.39027 90.0269C5.18749 91.8241 7.62505 92.8338 10.1667 92.8338H86.8334C92.1521 92.8338 96.4167 88.5692 96.4167 83.2505V35.3338C96.4167 31.8359 94.548 28.8171 91.7688 27.1401L82.0417 20.9588V11.3755H66.5646L48.5 0.0671387ZM24.5417 20.9588H72.4584V44.3421L48.5 59.2921L24.5417 44.3421V20.9588ZM29.3334 25.7505V32.938H67.6667V25.7505H29.3334ZM14.9584 32.363V38.3526L10.1667 35.3338L14.9584 32.363ZM82.0417 32.363L86.8334 35.3338L82.0417 38.3526V32.363ZM29.3334 37.7296V44.9171H67.6667V37.7296H29.3334Z" fill="white"/>
</svg>
