<svg width="24" height="24" viewBox="0 0 24 24" fill="none" xmlns="http://www.w3.org/2000/svg">
<path fill-rule="evenodd" clip-rule="evenodd" d="M15.0531 15.0527C15.1691 14.9364 15.307 14.8442 15.4588 14.7813C15.6105 14.7184 15.7732 14.686 15.9375 14.686C16.1017 14.686 16.2644 14.7184 16.4161 14.7813C16.5679 14.8442 16.7058 14.9364 16.8219 15.0527L21.6345 19.8653C21.8691 20.0997 22.0009 20.4177 22.001 20.7493C22.0011 21.0809 21.8695 21.3989 21.6351 21.6335C21.4007 21.868 21.0828 21.9999 20.7512 22C20.4196 22.0001 20.1015 21.8685 19.8669 21.6341L15.0543 16.8215C14.9381 16.7054 14.8459 16.5675 14.783 16.4157C14.7201 16.264 14.6877 16.1013 14.6877 15.9371C14.6877 15.7728 14.7201 15.6101 14.783 15.4584C14.8459 15.3066 14.9381 15.1687 15.0543 15.0527H15.0531Z" fill="#828282"/>
<path fill-rule="evenodd" clip-rule="evenodd" d="M10.1252 17.0004C11.0281 17.0004 11.9221 16.8226 12.7563 16.4771C13.5904 16.1316 14.3483 15.6252 14.9867 14.9867C15.6252 14.3483 16.1316 13.5904 16.4771 12.7563C16.8226 11.9221 17.0004 11.0281 17.0004 10.1252C17.0004 9.22238 16.8226 8.32835 16.4771 7.49421C16.1316 6.66008 15.6252 5.90216 14.9867 5.26374C14.3483 4.62532 13.5904 4.11889 12.7563 3.77338C11.9221 3.42787 11.0281 3.25004 10.1252 3.25004C8.30182 3.25004 6.55309 3.97439 5.26374 5.26374C3.97439 6.55309 3.25004 8.30182 3.25004 10.1252C3.25004 11.9487 3.97439 13.6974 5.26374 14.9867C6.55309 16.2761 8.30182 17.0004 10.1252 17.0004ZM18.2505 10.1252C18.2505 12.2802 17.3944 14.3469 15.8707 15.8707C14.3469 17.3944 12.2802 18.2505 10.1252 18.2505C7.97029 18.2505 5.90361 17.3944 4.37983 15.8707C2.85605 14.3469 2 12.2802 2 10.1252C2 7.97029 2.85605 5.90361 4.37983 4.37983C5.90361 2.85605 7.97029 2 10.1252 2C12.2802 2 14.3469 2.85605 15.8707 4.37983C17.3944 5.90361 18.2505 7.97029 18.2505 10.1252Z" fill="#828282"/>
</svg>
