<svg width="18" height="17" viewBox="0 0 18 17" fill="none" xmlns="http://www.w3.org/2000/svg">
<path d="M17 7.39013C17.1858 7.2517 17.3236 7.05857 17.3942 6.83784C17.4647 6.61711 17.4644 6.37983 17.3932 6.15929C17.3221 5.93875 17.1838 5.74599 16.9976 5.60806C16.8114 5.47012 16.5866 5.39392 16.355 5.39013L11.855 5.22013C11.8328 5.21861 11.8116 5.21071 11.7939 5.19741C11.7761 5.1841 11.7626 5.16595 11.755 5.14513L10.2 0.945134C10.1218 0.731454 9.97992 0.546943 9.79345 0.416582C9.60699 0.286222 9.38497 0.216309 9.15745 0.216309C8.92994 0.216309 8.70791 0.286222 8.52145 0.416582C8.33498 0.546943 8.19308 0.731454 8.11495 0.945134L6.56495 5.16013C6.55729 5.18095 6.54377 5.1991 6.52603 5.21241C6.50829 5.22571 6.48708 5.23361 6.46495 5.23513L1.96495 5.40513C1.73325 5.40892 1.50855 5.48512 1.32235 5.62306C1.13615 5.76099 0.997781 5.95375 0.926656 6.17429C0.855531 6.39483 0.855212 6.63211 0.925743 6.85284C0.996275 7.07357 1.13412 7.2667 1.31995 7.40513L4.84995 10.1801C4.86762 10.194 4.88082 10.2128 4.88793 10.2341C4.89504 10.2555 4.89574 10.2784 4.88995 10.3001L3.67495 14.6051C3.61199 14.8244 3.61809 15.0576 3.69242 15.2733C3.76675 15.4889 3.9057 15.6764 4.09038 15.8103C4.27505 15.9441 4.49647 16.0179 4.72453 16.0214C4.95258 16.025 5.1762 15.9582 5.36495 15.8301L9.09495 13.3301C9.11333 13.3174 9.13512 13.3107 9.15745 13.3107C9.17978 13.3107 9.20158 13.3174 9.21995 13.3301L12.95 15.8301C13.1362 15.9626 13.359 16.0337 13.5875 16.0337C13.8159 16.0337 14.0388 15.9626 14.225 15.8301C14.4097 15.6975 14.5488 15.511 14.6231 15.2961C14.6974 15.0812 14.7033 14.8485 14.64 14.6301L13.415 10.3101C13.4085 10.2884 13.4088 10.2653 13.416 10.2438C13.4231 10.2223 13.4367 10.2036 13.455 10.1901L17 7.39013Z" fill="#F2C94C"/>
</svg>
