<svg width="24" height="24" viewBox="0 0 24 24" fill="none" xmlns="http://www.w3.org/2000/svg">
<path d="M19.5293 3.58325C18.711 4.36638 17.7377 4.96923 16.672 5.35291C15.5483 5.5512 12.4387 4.10904 10.9064 5.58125C10.651 5.83663 10.3355 6.09202 10.005 6.3474C9.28393 6.03193 8.17226 5.5512 7.36104 5.08551C6.54983 4.61981 4.50676 3.58325 4.50676 3.58325L0 8.84114C0 8.84114 1.11167 10.3434 1.8027 11.3349C2.25338 11.9959 2.80921 13.0024 3.16975 13.6784L2.65899 14.2793C2.53667 14.5223 2.49266 14.7972 2.53302 15.0662C2.57337 15.3352 2.6961 15.5851 2.88433 15.7815C3.10158 15.9444 3.36593 16.0322 3.63746 16.0317C3.90899 16.0311 4.17298 15.9423 4.38958 15.7785C4.30927 15.8726 4.24848 15.9817 4.21078 16.0995C4.17307 16.2172 4.15919 16.3413 4.16996 16.4645C4.18073 16.5877 4.21592 16.7076 4.27349 16.817C4.33106 16.9265 4.40985 17.0234 4.50526 17.102C4.73466 17.236 4.99564 17.3064 5.2613 17.3058C5.52696 17.3053 5.78766 17.2339 6.01653 17.099C5.84488 17.313 5.75097 17.5788 5.75015 17.8531C5.74933 18.1274 5.84166 18.3938 6.01202 18.6088C6.23347 18.6855 6.46964 18.7099 6.70209 18.6802C6.93454 18.6505 7.15698 18.5674 7.35203 18.4375C7.25486 18.6675 7.22969 18.9216 7.27984 19.1662C7.32999 19.4108 7.45311 19.6344 7.63295 19.8076C7.88699 19.9205 8.16553 19.967 8.44247 19.9428C8.71941 19.9187 8.98568 19.8246 9.21632 19.6694L9.99149 18.9678C10.7006 19.6739 11.6785 20.111 12.7586 20.111L12.8503 20.1095C13.2062 20.0792 13.5472 19.9525 13.8367 19.7432C14.1262 19.5339 14.3533 19.2498 14.4937 18.9213C14.7131 19.0054 14.9624 19.0625 15.2268 19.0625C15.5814 19.0625 15.9104 18.9603 16.1883 18.7846C17.0671 18.2032 16.8568 17.7525 16.8568 17.7525C17.1693 17.887 17.5164 17.9189 17.8482 17.8436C18.1799 17.7683 18.4793 17.5896 18.7031 17.3334C18.9356 17.0955 19.0822 16.7869 19.1198 16.4563C19.1573 16.1258 19.0836 15.7921 18.9104 15.5081C18.9199 15.5138 18.9309 15.5164 18.9419 15.5157C19.5744 15.5157 20.1242 15.1671 20.4111 14.6534C20.5523 14.2882 20.6 13.8935 20.5499 13.5053C20.4998 13.117 20.3535 12.7474 20.1242 12.43L20.1287 12.4375C21.3605 12.1972 21.3155 11.5812 21.9164 10.6799C22.4853 9.94434 23.1933 9.32775 24 8.86517L19.5293 3.58325ZM19.4542 14.1892C18.7932 14.8502 18.2824 14.5647 17.1557 13.7084C16.029 12.8522 13.7907 11.2447 13.7907 11.2447C13.8823 11.7029 14.0941 12.101 14.3931 12.418C14.8723 12.9573 16.2994 14.1892 16.9755 14.8201C17.3961 15.2107 18.4777 15.9919 17.8468 16.5928C17.2158 17.1937 16.7201 16.5928 15.6835 15.7515C14.647 14.9102 12.3335 12.8371 12.3335 12.8371C12.3208 13.0359 12.3503 13.235 12.4202 13.4215C12.4902 13.6079 12.5988 13.7774 12.7391 13.9188C12.9945 14.2192 14.4216 15.6013 15.0225 16.2322C15.6234 16.8632 16.1492 17.2387 15.6385 17.7345C15.1277 18.2302 14.0911 17.4491 13.5203 16.8632C12.634 16.0069 10.8763 14.4145 10.8763 14.4145L10.8748 14.4941C10.8748 14.9208 11.022 15.3113 11.2699 15.6208C11.7026 16.1887 12.5438 16.9248 13.0546 17.4956C13.5653 18.0665 13.8658 18.5472 13.0546 18.9979C12.2434 19.4486 11.0416 18.3369 10.5158 17.7961V17.7931C10.5159 17.6447 10.4626 17.5012 10.3655 17.389C10.1859 17.2225 9.96414 17.1082 9.72431 17.0585C9.48447 17.0087 9.2356 17.0253 9.00451 17.1065C9.09959 17.0214 9.1758 16.9173 9.22826 16.801C9.28072 16.6847 9.30826 16.5586 9.30911 16.431C9.30996 16.3034 9.2841 16.177 9.23319 16.06C9.18229 15.943 9.10746 15.8379 9.01352 15.7515C8.81633 15.6021 8.57564 15.5214 8.32824 15.5216C8.08084 15.5219 7.84033 15.6032 7.64347 15.753C7.74301 15.6579 7.81985 15.5416 7.86829 15.4128C7.91672 15.2839 7.9355 15.1458 7.92323 15.0087C7.91097 14.8716 7.86797 14.739 7.79742 14.6208C7.72688 14.5026 7.63062 14.4018 7.51577 14.3259C7.24684 14.1569 6.93128 14.0775 6.6144 14.0991C6.29753 14.1207 5.99565 14.2421 5.75213 14.446C5.91488 14.2488 5.99513 13.9963 5.97609 13.7412C5.95705 13.4862 5.84021 13.2484 5.64997 13.0775C5.41354 12.8574 5.11224 12.7198 4.79111 12.6851C4.46997 12.6505 4.14625 12.7207 3.8683 12.8852L2.8693 11.1982C2.17827 10.1015 1.36705 8.95982 1.36705 8.95982L4.79219 4.79858C4.79219 4.79858 6.00901 5.5497 7.01552 6.12056C7.51127 6.40599 8.36755 6.78155 9.01352 7.082C7.99199 7.84815 7.1357 8.58425 7.39109 9.09502C7.8462 9.42172 8.39009 9.60192 8.95024 9.61159C9.5104 9.62125 10.0602 9.45991 10.5263 9.1491C11.1239 8.7518 11.8262 8.54108 12.5438 8.54369C13.0651 8.54369 13.5608 8.65185 14.01 8.84865C14.8423 9.41049 16.3746 10.7926 17.7717 11.6639C19.5293 12.9408 19.8748 13.767 19.4542 14.1877V14.1892Z" fill="#828282"/>
</svg>
