<svg width="64" height="90" viewBox="0 0 64 90" fill="none" xmlns="http://www.w3.org/2000/svg">
<path d="M14.9839 43.4765L18.5662 74.9999L19.7537 77.8124L19.2783 80.1475C20.7502 85.8751 25.9325 90 31.9997 90L35.7497 43.4765H14.9839Z" fill="#B0B0B0"/>
<path d="M32 43.4765V90C38.6867 90 44.2985 84.9899 45.0533 78.3459L45.7732 72.0116L45.374 69.5067L46.3724 66.7381L49.0158 43.4763H32V43.4765Z" fill="#878787"/>
<path d="M40.3202 66.7383V72.0117H45.7731L46.3724 66.7383H40.3202Z" fill="#666666"/>
<path d="M24.4998 74.8739H18.5519L18.9464 78.3457C19.0163 78.9611 19.1285 79.5625 19.2788 80.1473H24.4998V74.8739Z" fill="#878787"/>
<path d="M8.23878 25.4883L16.2924 55.1368H31.9998L39.4999 25.4883H8.23878Z" fill="#E5E5E5"/>
<path d="M55.761 25.4883H32V55.1368H47.7075L55.761 25.4883Z" fill="#CFCFCF"/>
<path d="M14.9959 0C12.389 0 9.68867 0.216562 7.03806 0.75375C3.12922 1.54617 0.299665 4.86809 0.157107 8.83213C-0.0798464 15.4257 0.783416 27.5403 9.2239 34.5895L9.86673 35.1295L9.93546 35.1852C12.4838 37.1705 15.6663 38.2641 18.8966 38.2641H31.9995L35.7495 18.7499L31.9995 3.0498C29.7968 1.95311 22.8213 0.000175781 14.9959 0V0Z" fill="#F7F0EB"/>
<path d="M63.8424 8.83213C63.6999 4.86809 60.8703 1.546 56.9615 0.75375C54.3114 0.216738 51.6096 0 49.0033 0C41.1772 0 34.2029 1.95311 32 3.0498V38.2642H45.1027C48.3331 38.2642 51.5156 37.1709 54.0639 35.1854L54.7702 34.5941C63.2159 27.5403 64.0794 15.4259 63.8424 8.83213Z" fill="#EFE2DD"/>
</svg>
