<svg width="86" height="90" viewBox="0 0 86 90" fill="none" xmlns="http://www.w3.org/2000/svg">
<path d="M3.37655 43.3956L0.311279 39.1045C6.86915 34.4203 14.8584 32.5702 22.8081 33.895L21.9412 39.0967C15.3812 38.0034 8.78816 39.5302 3.37655 43.3956Z" fill="#F9A7B0"/>
<path d="M82.6231 43.3956C77.2115 39.5302 70.6185 38.0036 64.0584 39.0967L63.1914 33.895C71.1409 32.5702 79.1304 34.4203 85.6882 39.1045L82.6231 43.3956Z" fill="#F27281"/>
<path d="M71.2292 9.79235C71.1167 6.66309 68.8542 4.03411 65.7853 3.41202C51.9291 0.603562 43.0005 6.35354 43.0005 6.35354L37.3757 26.2518L43.0005 52.501C50.3137 52.501 50.9743 70.6842 50.7778 80.7867C50.7075 84.3983 53.6138 87.3634 57.226 87.3634C59.7999 87.3634 62.1324 85.836 63.1473 83.4707C64.951 79.2671 67.3747 71.9623 67.3747 63.0604C67.3747 49.2273 62.7977 35.4508 62.7977 35.4508C70.6337 28.3788 71.4707 16.5121 71.2292 9.79235Z" fill="#EFE2DD"/>
<path d="M20.2153 3.41202C17.1464 4.03411 14.8839 6.66309 14.7714 9.79235C14.5299 16.5121 15.3669 28.5545 23.2029 35.6266C23.2029 35.6266 18.6259 49.2273 18.6259 63.0604C18.6259 71.9623 21.0496 79.2673 22.8533 83.4707C23.8682 85.8362 26.2007 87.3634 28.7746 87.3634C32.3868 87.3634 35.2931 84.3983 35.223 80.7867C35.0265 70.684 35.6871 52.501 43.0003 52.501V6.35354C43.0003 6.35354 34.0715 0.603562 20.2153 3.41202Z" fill="#F7F0EB"/>
<path d="M37.9774 52.0606C34.1056 56.0083 32.2921 65.6907 32.5869 80.8385C32.6069 81.8717 32.2198 82.847 31.4967 83.5844C30.774 84.3213 29.8072 84.7271 28.7749 84.7271C27.248 84.7271 25.875 83.8261 25.2765 82.4314C23.4454 78.1638 21.2627 71.3391 21.2627 63.0607C21.2627 49.8442 25.6579 36.5991 25.702 36.4678L26.2538 34.8285L24.9697 33.6695C21.9247 30.9214 16.8931 24.1772 17.4066 9.8872C17.4751 7.98015 18.8455 6.38002 20.7392 5.99629C25.993 4.9314 31.0901 5.03828 35.8889 6.31375C39.4877 7.27035 41.5624 8.56392 41.5728 8.57043L42.9757 9.50558L43.0003 9.48976L44.8752 5.6275L43.0003 3.34902C39.7761 1.74378 31.3386 -1.53243 19.6917 0.82814C15.3997 1.69808 12.2929 5.34554 12.1367 9.69789C11.8957 16.3997 12.6709 28.4747 20.2026 36.3825C18.983 40.4454 15.9894 51.5867 15.9894 63.0607C15.9894 72.2347 18.4045 79.7889 20.4304 84.5107C21.8612 87.8457 25.1367 90.0004 28.7749 90.0004C31.2355 90.0004 33.5391 89.0331 35.2616 87.2765C36.9846 85.5196 37.9071 83.1968 37.8591 80.7358C37.4868 61.608 40.7371 56.7777 41.7423 55.7529C42.2736 55.2112 42.6764 55.138 43.0003 55.138L44.8752 52.5013L43.0003 49.8646C41.1232 49.8648 39.3861 50.6242 37.9774 52.0606Z" fill="#F7F0EB"/>
<path d="M73.8641 9.69753C73.7077 5.34501 70.6011 1.69755 66.309 0.827787C54.6617 -1.53296 46.2244 1.74343 43.0004 3.34867H43.0002V9.48958L44.4177 8.57675C44.4383 8.56374 46.5131 7.26999 50.1118 6.31357C54.9107 5.0381 60.008 4.93122 65.2615 5.99593C67.1552 6.37984 68.5258 7.9798 68.5942 9.88703C68.8123 15.9571 68.1199 27.0957 61.031 33.4936L59.7536 34.6476L60.2952 36.2813C60.3395 36.4152 64.7381 49.8377 64.7381 63.0603C64.7381 71.3386 62.5554 78.1635 60.7243 82.4311C60.1259 83.8257 58.7527 84.7268 57.226 84.7268C56.1935 84.7268 55.2267 84.3209 54.5041 83.584C53.7809 82.8466 53.3937 81.8716 53.4137 80.8381C53.7085 65.6902 51.895 56.008 48.0234 52.0603C46.6145 50.6238 44.8776 49.8644 43.0004 49.8644V55.1377C43.3244 55.1377 43.7271 55.2106 44.2585 55.7526C45.2636 56.7774 48.5138 61.6075 48.1415 80.7355C48.0937 83.1964 49.016 85.5194 50.739 87.2761C52.4615 89.0325 54.7653 89.9999 57.2259 90C60.864 90 64.1395 87.8451 65.5702 84.5102C67.5963 79.7884 70.0111 72.2342 70.0111 63.0603C70.0111 51.569 67.0084 40.2991 65.794 36.2113C73.3243 28.3172 74.1028 16.3398 73.8641 9.69753Z" fill="#EFE2DD"/>
<path d="M53.5686 32.5735L56.688 27.3523C58.3089 24.6393 58.3454 21.3787 56.7857 18.6302C55.2262 15.8815 52.4082 14.2406 49.2479 14.2406C46.9328 14.2406 44.7565 15.1422 43.1194 16.7791L43.0002 16.8984L39.2503 30.0018L43.0002 43.6569C46.7769 43.6569 50.3737 45.1581 53.1724 47.8853C54.13 51.5326 54.8746 55.1064 55.2056 57.908L60.4425 57.2896C59.614 50.2733 56.5034 39.1848 53.5686 32.5735Z" fill="#666666"/>
<path d="M42.8808 16.7791C41.2439 15.1422 39.0674 14.2406 36.7525 14.2406C33.5923 14.2406 30.7745 15.8815 29.2148 18.63C27.6551 21.3785 27.6917 24.6393 29.3126 27.3521L32.432 32.5734C29.4973 39.1845 26.3867 50.2731 25.558 57.2893L30.7949 57.9076C31.1257 55.106 31.8704 51.5324 32.828 47.8851C35.6264 45.1579 39.2233 43.6565 43.0001 43.6565V16.8984L42.8808 16.7791Z" fill="#878787"/>
</svg>
