<svg width="90" height="58" viewBox="0 0 90 58" fill="none" xmlns="http://www.w3.org/2000/svg">
<path d="M89.9999 31.1213V9.08909L88.339 8.42744C74.4892 2.91072 59.9079 0.113342 44.9999 0.113342L43.1249 14.6272L44.9999 36.6498L89.9999 31.1213Z" fill="#F27281"/>
<path d="M0 9.08909V31.2178L45 36.6498V0.113342C30.0918 0.113342 15.5106 2.91073 1.66096 8.42762L0 9.08909Z" fill="#F68B98"/>
<path d="M27.3313 31.7012V31.5632C27.3313 27.4466 23.9941 24.1092 19.8773 24.1092C15.8667 24.1092 12.5972 27.2772 12.4314 31.247L12.4235 31.2182C12.4235 27.7876 9.64248 25.0066 6.21193 25.0066C2.78104 25.0064 0 27.7874 0 31.218V38.7776C0 39.7485 0.786973 40.5354 1.75781 40.5354H12.4233V40.9863C12.4233 41.9572 13.2103 42.7441 14.1812 42.7441H27.3313L29.6311 38.3751C29.6311 38.3751 27.3313 33.6949 27.3313 31.7012Z" fill="#EFE2DD"/>
<path d="M83.7883 25.0063C80.3576 25.0063 77.5766 27.7873 77.5766 31.2179L77.5701 31.3045C77.4337 27.3076 74.1527 24.1089 70.1226 24.1089C66.0058 24.1089 62.6686 27.4461 62.6686 31.5629V31.7009C62.6686 26.8219 58.7133 22.8665 53.8343 22.8665C48.9554 22.8665 44.9999 26.8218 44.9999 31.7009L43.1249 36.4999L44.9999 44.9526H60.9108C61.8816 44.9526 62.6686 44.1656 62.6686 43.1947V42.744H75.8188C76.7896 42.744 77.5766 41.9571 77.5766 40.9862V40.5353H88.2421C89.213 40.5353 89.9999 39.7484 89.9999 38.7775V31.2179C89.9999 27.7873 87.2189 25.0063 83.7883 25.0063Z" fill="#EFE2DD"/>
<path d="M36.1655 22.8667C31.2863 22.8667 27.3311 26.822 27.3311 31.7011V31.5631V42.7442V43.1949C27.3311 44.1658 28.118 44.9527 29.0889 44.9527H44.9997V31.7013C44.9997 26.822 41.0444 22.8667 36.1655 22.8667Z" fill="#CDBFBA"/>
<path d="M29.1833 31.8216C23.1437 31.8216 18.2299 36.7354 18.2299 42.7751V53.4923C18.2299 55.9154 20.2013 57.8868 22.6244 57.8868H35.7421C38.1652 57.8868 40.1366 55.9154 40.1366 53.4923V42.7751C40.1366 36.7354 35.223 31.8216 29.1833 31.8216Z" fill="#F7F0EB"/>
</svg>
