<svg width="24" height="24" viewBox="0 0 24 24" fill="none" xmlns="http://www.w3.org/2000/svg">
<path d="M5.04069 1.70898C5.04068 1.70899 5.04067 1.709 5.04067 1.70901C4.85306 1.89639 4.85316 2.20062 5.04067 2.38813C5.22822 2.57568 5.53223 2.57568 5.71978 2.38813L5.7198 2.3881C6.05998 2.04772 6.51217 1.8605 6.99328 1.8605C7.98642 1.8605 8.79456 2.66865 8.79456 3.66179C8.79456 4.65494 7.98647 5.46313 6.99328 5.46313C6.72791 5.46313 6.513 5.67827 6.513 5.94341V7.94474C6.513 8.20982 6.7279 8.42502 6.99328 8.42502C7.25867 8.42502 7.47356 8.20985 7.47356 7.94457V6.38179C8.7682 6.15388 9.75512 5.02123 9.75512 3.66185C9.75512 2.1388 8.51615 0.9 6.99328 0.9C6.25605 0.9 5.56232 1.18737 5.04069 1.70898Z" fill="#828282" stroke="#828282" stroke-width="0.2"/>
<path d="M8.02976 21.1037V21.1145C8.02391 21.6806 7.56138 22.1397 6.99377 22.1397C6.42252 22.1397 5.95772 21.6748 5.95772 21.1037V10.5259H8.02976V21.1037ZM8.50987 9.56522H5.47749C5.21213 9.56522 4.99721 9.78036 4.99721 10.0455V21.1035C4.99721 22.2044 5.89284 23.1 6.99377 23.1C8.0947 23.1 8.99015 22.2046 8.99015 21.1035V10.0455C8.99015 9.78036 8.77524 9.56522 8.50987 9.56522Z" fill="#828282" stroke="#828282" stroke-width="0.2"/>
<path d="M8.49852 7.66398H5.45645C5.19109 7.66398 4.97617 7.87911 4.97617 8.14426V10.0455C4.97617 10.3106 5.19108 10.5258 5.45645 10.5258H8.49852C8.76389 10.5258 8.9788 10.3107 8.9788 10.0455V8.14426C8.9788 7.87911 8.76389 7.66398 8.49852 7.66398Z" fill="#828282" stroke="#828282" stroke-width="0.2"/>
<path d="M16.7 5.39353C16.439 5.39353 16.2275 5.60518 16.2275 5.86603V8.47338C16.2275 8.73416 16.439 8.94588 16.7 8.94588C16.9611 8.94588 17.1725 8.73423 17.1725 8.47338V5.86603C17.1725 5.60525 16.9611 5.39353 16.7 5.39353Z" fill="#828282" stroke="#828282" stroke-width="0.2"/>
<path d="M18.8317 1.7968L18.8318 1.79684C20.0275 2.99298 20.0275 4.93877 18.8318 6.13476L18.8317 1.7968ZM18.8317 1.7968C17.6352 0.601078 15.6896 0.601047 14.4938 1.79682L14.4938 1.79683M18.8317 1.7968L14.4938 1.79683M14.4938 1.79683C13.9145 2.37614 13.5952 3.14673 13.5952 3.96588M14.4938 1.79683L13.5952 3.96588M13.5952 3.96588C13.5952 4.78526 13.9145 5.55579 14.4938 6.13495M13.5952 3.96588L14.4938 6.13495M14.4938 6.13495C15.0731 6.71427 15.8435 7.03341 16.6627 7.03341M14.4938 6.13495L16.6627 7.03341M16.6627 7.03341C17.4819 7.03341 18.2526 6.71428 18.8318 6.13477L16.6627 7.03341Z" fill="#828282" stroke="#828282" stroke-width="0.2"/>
<path d="M18.6624 8.47302V8.47299C18.6623 8.21218 18.4509 8.00052 18.1899 8.00052H15.2101C14.949 8.00052 14.7376 8.21218 14.7376 8.47302V10.3354C14.7376 10.5962 14.949 10.8079 15.2101 10.8079H18.1899C18.451 10.8079 18.6624 10.5962 18.6624 10.3354V8.47302Z" fill="#828282" stroke="#828282" stroke-width="0.2"/>
<path d="M17.708 21.1423V21.1529C17.7023 21.7063 17.2502 22.1551 16.6953 22.1551C16.1369 22.1551 15.6825 21.7005 15.6825 21.1423V10.8082H17.708V21.1423ZM18.1802 9.86326H15.2099C14.9488 9.86326 14.7374 10.0749 14.7374 10.3358V21.1423C14.7374 22.2218 15.6156 23.1 16.6951 23.1C17.7746 23.1 18.6528 22.2218 18.6527 21.1423C18.6527 21.1423 18.6527 21.1423 18.6527 21.1422V10.3358C18.6527 10.075 18.4413 9.86326 18.1802 9.86326Z" fill="#828282" stroke="#828282" stroke-width="0.2"/>
</svg>
